<?xml version="1.0" encoding="UTF-8"?>
<svg id="_レイヤー_1" data-name="レイヤー_1" xmlns="http://www.w3.org/2000/svg" version="1.1" viewBox="0 0 14 20">
  <!-- Generator: Adobe Illustrator 30.3.0, SVG Export Plug-In . SVG Version: 2.1.3 Build 182)  -->
  <defs>
    <style>
      .st0 {
        fill: #683c22;
      }

      .st1 {
        fill: #bc5500;
      }

      .st2 {
        fill: #3c281b;
      }

      .st3 {
        fill: #336c28;
      }

      .st4 {
        fill: #d9771c;
      }

      .st5 {
        fill: #93711d;
      }

      .st6 {
        fill: #a55c20;
      }

      .st7 {
        fill: #a05313;
      }

      .st8 {
        fill: #e58f48;
      }
    </style>
  </defs>
  <rect class="st8" x="3" y="6" width="1" height="1"/>
  <rect class="st8" x="3" y="7" width="1" height="1"/>
  <rect class="st8" x="5" y="7" width="1" height="1"/>
  <rect class="st8" x="8" y="7" width="1" height="1"/>
  <rect class="st2" x="4" y="7" width="1" height="1"/>
  <rect class="st2" x="9" y="7" width="1" height="1"/>
  <rect class="st8" x="3" y="8" width="1" height="1"/>
  <rect class="st2" x="4" y="8" width="1" height="1"/>
  <rect class="st8" x="4" y="9" width="1" height="1"/>
  <rect class="st8" x="5" y="8" width="1" height="1"/>
  <rect class="st8" x="8" y="8" width="1" height="1"/>
  <rect class="st2" x="9" y="8" width="1" height="1"/>
  <rect class="st8" x="9" y="9" width="1" height="1"/>
  <rect class="st6" x="8" y="9" width="1" height="1"/>
  <rect class="st8" x="10" y="9" width="1" height="1"/>
  <rect class="st6" x="7" y="9" width="1" height="1"/>
  <rect class="st4" x="6" y="9" width="1" height="1"/>
  <rect class="st6" x="5" y="9" width="1" height="1"/>
  <rect class="st8" x="3" y="9" width="1" height="1"/>
  <rect class="st8" x="5" y="10" width="1" height="1"/>
  <rect class="st8" x="8" y="10" width="1" height="1"/>
  <rect class="st8" x="7" y="10" width="1" height="1"/>
  <rect class="st8" x="6" y="10" width="1" height="1"/>
  <rect class="st8" x="9" y="10" width="1" height="1"/>
  <rect class="st8" x="10" y="10" width="1" height="1"/>
  <rect class="st8" x="3" y="10" width="1" height="1"/>
  <rect class="st8" x="4" y="10" width="1" height="1"/>
  <rect class="st8" x="5" y="11" width="1" height="1"/>
  <rect class="st3" x="3" y="11" width="1" height="1"/>
  <rect class="st3" x="4" y="11" width="1" height="1"/>
  <rect class="st8" x="8" y="11" width="1" height="1"/>
  <rect class="st8" x="6" y="11" width="1" height="1"/>
  <rect class="st8" x="7" y="11" width="1" height="1"/>
  <rect class="st3" x="10" y="11" width="1" height="1"/>
  <rect class="st3" x="3" y="12" width="1" height="1"/>
  <rect class="st3" x="2" y="13" width="1" height="1"/>
  <rect class="st3" x="2" y="14" width="1" height="1"/>
  <rect class="st3" x="1" y="14" width="1" height="1"/>
  <rect class="st3" x="1" y="15" width="1" height="1"/>
  <rect class="st3" x="3" y="13" width="1" height="1"/>
  <rect class="st8" x="5" y="13" width="1" height="1"/>
  <rect class="st3" x="4" y="13" width="1" height="1"/>
  <rect class="st8" x="6" y="13" width="1" height="1"/>
  <rect class="st8" x="7" y="13" width="1" height="1"/>
  <rect class="st3" x="9" y="13" width="1" height="1"/>
  <rect class="st8" x="8" y="13" width="1" height="1"/>
  <rect class="st3" x="10" y="13" width="1" height="1"/>
  <rect class="st8" x="3" y="14" width="1" height="1"/>
  <rect class="st8" x="5" y="14" width="1" height="1"/>
  <rect class="st8" x="4" y="14" width="1" height="1"/>
  <rect class="st8" x="6" y="14" width="1" height="1"/>
  <rect class="st8" x="7" y="14" width="1" height="1"/>
  <rect class="st8" x="9" y="14" width="1" height="1"/>
  <rect class="st8" x="8" y="14" width="1" height="1"/>
  <rect class="st8" x="10" y="14" width="1" height="1"/>
  <rect class="st0" x="3" y="16" width="1" height="1"/>
  <rect class="st0" x="5" y="16" width="1" height="1"/>
  <rect class="st0" x="4" y="16" width="1" height="1"/>
  <rect class="st8" x="3" y="17" width="1" height="1"/>
  <rect class="st8" x="5" y="17" width="1" height="1"/>
  <rect class="st8" x="4" y="17" width="1" height="1"/>
  <rect class="st8" x="5" y="18" width="1" height="1"/>
  <rect class="st8" x="4" y="18" width="1" height="1"/>
  <rect class="st5" x="6" y="16" width="1" height="1"/>
  <rect class="st5" x="7" y="16" width="1" height="1"/>
  <rect class="st8" x="6" y="17" width="1" height="1"/>
  <rect class="st8" x="7" y="17" width="1" height="1"/>
  <rect class="st0" x="9" y="16" width="1" height="1"/>
  <rect class="st0" x="8" y="16" width="1" height="1"/>
  <rect class="st0" x="10" y="16" width="1" height="1"/>
  <rect class="st8" x="9" y="17" width="1" height="1"/>
  <rect class="st8" x="8" y="17" width="1" height="1"/>
  <rect class="st8" x="10" y="17" width="1" height="1"/>
  <rect class="st8" x="8" y="18" width="1" height="1"/>
  <rect class="st8" x="9" y="18" width="1" height="1"/>
  <rect class="st1" x="5" y="19" width="1" height="1"/>
  <rect class="st1" x="4" y="19" width="1" height="1"/>
  <rect class="st8" x="3" y="18" width="1" height="1"/>
  <rect class="st1" x="3" y="19" width="1" height="1"/>
  <rect class="st1" x="9" y="19" width="1" height="1"/>
  <rect class="st8" x="10" y="18" width="1" height="1"/>
  <rect class="st1" x="10" y="19" width="1" height="1"/>
  <rect class="st1" x="8" y="19" width="1" height="1"/>
  <rect class="st7" x="3" y="15" width="1" height="1"/>
  <rect class="st8" x="2" y="15" width="1" height="1"/>
  <rect class="st8" x="2" y="16" width="1" height="1"/>
  <rect class="st8" x="5" y="15" width="1" height="1"/>
  <rect class="st8" x="4" y="15" width="1" height="1"/>
  <rect class="st8" x="6" y="15" width="1" height="1"/>
  <rect class="st8" x="7" y="15" width="1" height="1"/>
  <rect class="st8" x="9" y="15" width="1" height="1"/>
  <rect class="st8" x="8" y="15" width="1" height="1"/>
  <rect class="st7" x="10" y="15" width="1" height="1"/>
  <rect class="st8" x="11" y="15" width="1" height="1"/>
  <rect class="st8" x="11" y="16" width="1" height="1"/>
  <rect class="st3" x="11" y="13" width="1" height="1"/>
  <rect class="st3" x="11" y="14" width="1" height="1"/>
  <rect class="st3" x="12" y="14" width="1" height="1"/>
  <rect class="st3" x="12" y="15" width="1" height="1"/>
  <rect class="st3" x="10" y="12" width="1" height="1"/>
  <rect class="st3" x="9" y="11" width="1" height="1"/>
  <rect class="st3" x="5" y="12" width="1" height="1"/>
  <rect class="st3" x="4" y="12" width="1" height="1"/>
  <rect class="st3" x="8" y="12" width="1" height="1"/>
  <rect class="st5" x="6" y="12" width="1" height="1"/>
  <rect class="st5" x="7" y="12" width="1" height="1"/>
  <rect class="st3" x="9" y="12" width="1" height="1"/>
  <rect class="st2" x="2" y="7" width="1" height="1"/>
  <rect class="st8" x="2" y="6" width="1" height="1"/>
  <rect class="st8" x="2" y="5" width="1" height="1"/>
  <rect class="st8" x="2" y="8" width="1" height="1"/>
  <rect class="st2" x="2" y="9" width="1" height="1"/>
  <rect class="st2" x="1" y="9" width="1" height="1"/>
  <rect class="st8" x="10" y="8" width="1" height="1"/>
  <rect class="st8" x="10" y="7" width="1" height="1"/>
  <rect class="st8" x="4" y="6" width="1" height="1"/>
  <rect class="st8" x="5" y="6" width="1" height="1"/>
  <rect class="st8" x="5" y="5" width="1" height="1"/>
  <rect class="st8" x="6" y="6" width="1" height="1"/>
  <rect class="st8" x="7" y="6" width="1" height="1"/>
  <rect class="st8" x="6" y="7" width="1" height="1"/>
  <rect class="st8" x="7" y="7" width="1" height="1"/>
  <rect class="st1" x="6" y="8" width="1" height="1"/>
  <rect class="st8" x="7" y="8" width="1" height="1"/>
  <rect class="st8" x="8" y="6" width="1" height="1"/>
  <rect class="st8" x="9" y="6" width="1" height="1"/>
  <rect class="st8" x="10" y="6" width="1" height="1"/>
  <rect class="st8" x="3" y="5" width="1" height="1"/>
  <rect class="st8" x="4" y="5" width="1" height="1"/>
  <rect class="st8" x="6" y="5" width="1" height="1"/>
  <rect class="st8" x="7" y="5" width="1" height="1"/>
  <rect class="st8" x="8" y="5" width="1" height="1"/>
  <rect class="st8" x="9" y="5" width="1" height="1"/>
  <rect class="st8" x="10" y="5" width="1" height="1"/>
  <rect class="st8" x="5" y="4" width="1" height="1"/>
  <rect class="st8" x="3" y="4" width="1" height="1"/>
  <rect class="st8" x="2" y="4" width="1" height="1"/>
  <rect class="st1" x="2" y="3" width="1" height="1"/>
  <rect class="st2" x="1" y="7" width="1" height="1"/>
  <rect class="st8" x="4" y="4" width="1" height="1"/>
  <rect class="st8" x="6" y="4" width="1" height="1"/>
  <rect class="st8" x="7" y="4" width="1" height="1"/>
  <rect class="st8" x="8" y="4" width="1" height="1"/>
  <rect class="st8" x="9" y="4" width="1" height="1"/>
  <rect class="st8" x="10" y="4" width="1" height="1"/>
  <rect class="st8" x="3" y="3" width="1" height="1"/>
  <rect class="st1" x="10" y="3" width="1" height="1"/>
  <rect class="st2" x="11" y="9" width="1" height="1"/>
  <rect class="st2" x="12" y="9" width="1" height="1"/>
  <rect class="st8" x="11" y="8" width="1" height="1"/>
  <rect class="st2" x="11" y="7" width="1" height="1"/>
  <rect class="st2" x="12" y="7" width="1" height="1"/>
  <rect class="st8" x="11" y="6" width="1" height="1"/>
  <rect class="st8" x="11" y="5" width="1" height="1"/>
  <rect class="st8" x="11" y="4" width="1" height="1"/>
  <rect class="st8" x="11" y="3" width="1" height="1"/>
</svg>