<svg xmlns="http://www.w3.org/2000/svg" viewBox="0 0 16 16">
  <title>KovitoBoard favicon</title>
  <defs>
    <style>
      .st0 { fill: #683c22; }
      .st1 { fill: #3c281b; }
      .st3 { fill: #d2cdcd; }
      .st4 { fill: #005f99; }
      .st5 { fill: #93711d; }
      .st6 { fill: #0070c0; }
      .st7 { fill: #d89d91; }
      .st8 { fill: #eaae9f; }
      .st9 { fill: #e7a491; }
    </style>
  </defs>
  <g transform="translate(1 -1)" shape-rendering="crispEdges">
    <rect class="st0" x="3" y="7" width="1" height="1"/>
    <rect class="st8" x="3" y="8" width="1" height="1"/>
    <rect class="st8" x="5" y="8" width="1" height="1"/>
    <rect class="st8" x="8" y="8" width="1" height="1"/>
    <rect class="st8" x="4" y="8" width="1" height="1"/>
    <rect class="st8" x="9" y="8" width="1" height="1"/>
    <rect class="st8" x="3" y="9" width="1" height="1"/>
    <rect class="st1" x="4" y="9" width="1" height="1"/>
    <rect class="st8" x="4" y="10" width="1" height="1"/>
    <rect class="st8" x="5" y="9" width="1" height="1"/>
    <rect class="st8" x="8" y="9" width="1" height="1"/>
    <rect class="st1" x="9" y="9" width="1" height="1"/>
    <rect class="st8" x="9" y="10" width="1" height="1"/>
    <rect class="st8" x="8" y="10" width="1" height="1"/>
    <rect class="st8" x="10" y="10" width="1" height="1"/>
    <rect class="st8" x="11" y="9" width="1" height="1"/>
    <rect class="st0" x="11" y="8" width="1" height="1"/>
    <rect class="st8" x="7" y="10" width="1" height="1"/>
    <rect class="st8" x="6" y="10" width="1" height="1"/>
    <rect class="st8" x="5" y="10" width="1" height="1"/>
    <rect class="st8" x="3" y="10" width="1" height="1"/>
    <rect class="st8" x="5" y="11" width="1" height="1"/>
    <rect class="st8" x="8" y="11" width="1" height="1"/>
    <rect class="st7" x="7" y="11" width="1" height="1"/>
    <rect class="st7" x="6" y="11" width="1" height="1"/>
    <rect class="st8" x="9" y="11" width="1" height="1"/>
    <rect class="st8" x="10" y="11" width="1" height="1"/>
    <rect class="st8" x="3" y="11" width="1" height="1"/>
    <rect class="st8" x="4" y="11" width="1" height="1"/>
    <rect class="st9" x="2" y="15" width="1" height="1"/>
    <rect class="st1" x="9" y="15" width="1" height="1"/>
    <rect class="st4" x="3" y="14" width="1" height="1"/>
    <rect class="st4" x="10" y="14" width="1" height="1"/>
    <rect class="st4" x="3" y="15" width="1" height="1"/>
    <rect class="st4" x="10" y="15" width="1" height="1"/>
    <rect class="st8" x="5" y="12" width="1" height="1"/>
    <rect class="st8" x="4" y="12" width="1" height="1"/>
    <rect class="st8" x="8" y="12" width="1" height="1"/>
    <rect class="st8" x="6" y="12" width="1" height="1"/>
    <rect class="st8" x="7" y="12" width="1" height="1"/>
    <rect class="st8" x="9" y="12" width="1" height="1"/>
    <rect class="st6" x="3" y="12" width="1" height="1"/>
    <rect class="st6" x="10" y="12" width="1" height="1"/>
    <rect class="st6" x="2" y="13" width="1" height="1"/>
    <rect class="st6" x="3" y="13" width="1" height="1"/>
    <rect class="st6" x="2" y="14" width="1" height="1"/>
    <rect class="st6" x="5" y="14" width="1" height="1"/>
    <rect class="st6" x="4" y="14" width="1" height="1"/>
    <rect class="st6" x="6" y="14" width="1" height="1"/>
    <rect class="st6" x="7" y="14" width="1" height="1"/>
    <rect class="st6" x="9" y="14" width="1" height="1"/>
    <rect class="st6" x="8" y="14" width="1" height="1"/>
    <rect class="st6" x="5" y="15" width="1" height="1"/>
    <rect class="st6" x="4" y="15" width="1" height="1"/>
    <rect class="st6" x="6" y="15" width="1" height="1"/>
    <rect class="st6" x="7" y="15" width="1" height="1"/>
    <rect class="st6" x="8" y="15" width="1" height="1"/>
    <rect class="st6" x="11" y="14" width="1" height="1"/>
    <rect class="st6" x="11" y="13" width="1" height="1"/>
    <rect class="st6" x="10" y="13" width="1" height="1"/>
    <rect class="st6" x="5" y="13" width="1" height="1"/>
    <rect class="st6" x="4" y="13" width="1" height="1"/>
    <rect class="st6" x="8" y="13" width="1" height="1"/>
    <rect class="st6" x="6" y="13" width="1" height="1"/>
    <rect class="st6" x="7" y="13" width="1" height="1"/>
    <rect class="st6" x="9" y="13" width="1" height="1"/>
    <rect class="st8" x="2" y="9" width="1" height="1"/>
    <rect class="st0" x="2" y="8" width="1" height="1"/>
    <rect class="st8" x="10" y="9" width="1" height="1"/>
    <rect class="st8" x="10" y="8" width="1" height="1"/>
    <rect class="st0" x="4" y="7" width="1" height="1"/>
    <rect class="st8" x="5" y="7" width="1" height="1"/>
    <rect class="st0" x="6" y="7" width="1" height="1"/>
    <rect class="st0" x="7" y="7" width="1" height="1"/>
    <rect class="st8" x="6" y="8" width="1" height="1"/>
    <rect class="st8" x="7" y="8" width="1" height="1"/>
    <rect class="st8" x="6" y="9" width="1" height="1"/>
    <rect class="st8" x="7" y="9" width="1" height="1"/>
    <rect class="st0" x="8" y="7" width="1" height="1"/>
    <rect class="st0" x="9" y="7" width="1" height="1"/>
    <rect class="st0" x="10" y="7" width="1" height="1"/>
    <rect class="st6" x="4" y="5" width="1" height="1"/>
    <rect class="st6" x="5" y="5" width="1" height="1"/>
    <rect class="st6" x="6" y="5" width="1" height="1"/>
    <rect class="st6" x="7" y="5" width="1" height="1"/>
    <rect class="st6" x="8" y="5" width="1" height="1"/>
    <rect class="st6" x="4" y="4" width="1" height="1"/>
    <rect class="st6" x="5" y="4" width="1" height="1"/>
    <rect class="st6" x="6" y="4" width="1" height="1"/>
    <rect class="st6" x="7" y="4" width="1" height="1"/>
    <rect class="st6" x="8" y="4" width="1" height="1"/>
    <rect class="st6" x="5" y="3" width="1" height="1"/>
    <rect class="st6" x="6" y="3" width="1" height="1"/>
    <rect class="st6" x="7" y="3" width="1" height="1"/>
    <rect class="st6" x="8" y="3" width="1" height="1"/>
    <rect class="st6" x="9" y="3" width="1" height="1"/>
    <rect class="st6" x="6" y="2" width="1" height="1"/>
    <rect class="st6" x="7" y="2" width="1" height="1"/>
    <rect class="st6" x="8" y="2" width="1" height="1"/>
    <rect class="st6" x="9" y="2" width="1" height="1"/>
    <rect class="st6" x="7" y="1" width="1" height="1"/>
    <rect class="st6" x="8" y="1" width="1" height="1"/>
    <rect class="st6" x="9" y="1" width="1" height="1"/>
    <rect class="st6" x="10" y="1" width="1" height="1"/>
    <rect class="st6" x="10" y="2" width="1" height="1"/>
    <rect class="st6" x="11" y="2" width="1" height="1"/>
    <rect class="st4" x="3" y="6" width="1" height="1"/>
    <rect class="st4" x="4" y="6" width="1" height="1"/>
    <rect class="st4" x="5" y="6" width="1" height="1"/>
    <rect class="st4" x="6" y="6" width="1" height="1"/>
    <rect class="st4" x="7" y="6" width="1" height="1"/>
    <rect class="st4" x="8" y="6" width="1" height="1"/>
    <rect class="st4" x="9" y="6" width="1" height="1"/>
    <rect class="st4" x="10" y="6" width="1" height="1"/>
    <rect class="st4" x="3" y="5" width="1" height="1"/>
    <rect class="st4" x="9" y="5" width="1" height="1"/>
    <rect class="st4" x="10" y="5" width="1" height="1"/>
    <rect class="st4" x="9" y="4" width="1" height="1"/>
    <rect class="st4" x="10" y="3" width="1" height="1"/>
    <rect class="st4" x="11" y="3" width="1" height="1"/>
    <rect class="st4" x="12" y="3" width="1" height="1"/>
  </g>
</svg>
